<?xml version="1.0" encoding="UTF-8"?>
<svg id="Layer_1" data-name="Layer 1" xmlns="http://www.w3.org/2000/svg" viewBox="0 0 300 300">
  <defs>
    <style>
      .cls-1 {
        fill: #dfcdf7;
      }

      .cls-2 {
        fill: #975be5;
        font-family: Poppins-Bold, Poppins;
        font-size: 45.4px;
        font-weight: 700;
      }

      .cls-3 {
        fill: #3f3d56;
      }
    </style>
  </defs>
  <circle class="cls-1" cx="145.3" cy="157.09" r="100.78"/>
  <path class="cls-3" d="M213.97,213.88c-4.54-4.79-12.81-9.67-13.86-17.01-.41-2.89,1.07-6.05-.13-8.31-.65-1.22-11.08-11.79-11.92-11.93-7.93,4.76-15.51,9.78-24.61,12.17-63.01,16.53-113.86-50.33-83.47-107.19,27.68-51.79,98.1-52.82,127.21-1.9,14.99,26.22,11.65,58.42-5.1,82.92.17.86,11.41,12.17,12.22,12.51,2.94,1.2,5.59-2.4,12.34,2.8,10.83,13.64,26.66,25.31,37.48,38.45,4.82,5.85,7.65,11.09,3.15,18.36-3.82,6.18-12.26,13.6-20.05,11.82-4.26-.97-28.43-27.57-33.27-32.68ZM140.09,58.19c-45.95,3.19-69.56,59.98-40.15,95.58,23.25,28.15,63.66,29.24,87.34.95,32.18-38.44,3.16-100.02-47.18-96.53Z"/>
  <text class="cls-2" transform="translate(99.38 129.05)"><tspan x="0" y="0">Ops</tspan></text>
</svg>